<svg width="114" height="114" viewBox="0 0 114 114" fill="none" xmlns="http://www.w3.org/2000/svg">
<rect width="114" height="114" rx="10" fill="#0B1629"/>
<path d="M40.032 43.328C44.7253 43.328 48.8427 44.2453 52.384 46.08C55.968 47.9147 58.72 50.5387 60.64 53.952C62.6027 57.3227 63.584 61.248 63.584 65.728C63.584 70.208 62.6027 74.1333 60.64 77.504C58.72 80.832 55.968 83.4133 52.384 85.248C48.8427 87.0827 44.7253 88 40.032 88H24.416V43.328H40.032ZM39.712 80.384C44.4053 80.384 48.032 79.104 50.592 76.544C53.152 73.984 54.432 70.3787 54.432 65.728C54.432 61.0773 53.152 57.4507 50.592 54.848C48.032 52.2027 44.4053 50.88 39.712 50.88H33.376V80.384H39.712ZM67.987 70.144C67.987 66.56 68.691 63.3813 70.099 60.608C71.5497 57.8347 73.491 55.7013 75.923 54.208C78.3977 52.7147 81.1497 51.968 84.179 51.968C86.8243 51.968 89.1283 52.5013 91.091 53.568C93.0963 54.6347 94.6963 55.9787 95.891 57.6V52.544H104.915V88H95.891V82.816C94.739 84.48 93.139 85.8667 91.091 86.976C89.0857 88.0427 86.7603 88.576 84.115 88.576C81.1283 88.576 78.3977 87.808 75.923 86.272C73.491 84.736 71.5497 82.5813 70.099 79.808C68.691 76.992 67.987 73.7707 67.987 70.144ZM95.891 70.272C95.891 68.096 95.4643 66.24 94.611 64.704C93.7577 63.1253 92.6057 61.9307 91.155 61.12C89.7043 60.2667 88.147 59.84 86.483 59.84C84.819 59.84 83.283 60.2453 81.875 61.056C80.467 61.8667 79.315 63.0613 78.419 64.64C77.5657 66.176 77.139 68.0107 77.139 70.144C77.139 72.2773 77.5657 74.1547 78.419 75.776C79.315 77.3547 80.467 78.5707 81.875 79.424C83.3257 80.2773 84.8617 80.704 86.483 80.704C88.147 80.704 89.7043 80.2987 91.155 79.488C92.6057 78.6347 93.7577 77.44 94.611 75.904C95.4643 74.3253 95.891 72.448 95.891 70.272Z" fill="white"/>
</svg>
