<svg width="443" height="114" viewBox="0 0 443 114" fill="none" xmlns="http://www.w3.org/2000/svg">
<rect width="114" height="114" rx="10" fill="#0B1629"/>
<path d="M46.032 43.328C50.7253 43.328 54.8427 44.2453 58.384 46.08C61.968 47.9147 64.72 50.5387 66.64 53.952C68.6027 57.3227 69.584 61.248 69.584 65.728C69.584 70.208 68.6027 74.1333 66.64 77.504C64.72 80.832 61.968 83.4133 58.384 85.248C54.8427 87.0827 50.7253 88 46.032 88H30.416V43.328H46.032ZM45.712 80.384C50.4053 80.384 54.032 79.104 56.592 76.544C59.152 73.984 60.432 70.3787 60.432 65.728C60.432 61.0773 59.152 57.4507 56.592 54.848C54.032 52.2027 50.4053 50.88 45.712 50.88H39.376V80.384H45.712ZM73.987 70.144C73.987 66.56 74.691 63.3813 76.099 60.608C77.5497 57.8347 79.491 55.7013 81.923 54.208C84.3977 52.7147 87.1497 51.968 90.179 51.968C92.8243 51.968 95.1283 52.5013 97.091 53.568C99.0963 54.6347 100.696 55.9787 101.891 57.6V52.544H110.915V88H101.891V82.816C100.739 84.48 99.139 85.8667 97.091 86.976C95.0857 88.0427 92.7603 88.576 90.115 88.576C87.1283 88.576 84.3977 87.808 81.923 86.272C79.491 84.736 77.5497 82.5813 76.099 79.808C74.691 76.992 73.987 73.7707 73.987 70.144ZM101.891 70.272C101.891 68.096 101.464 66.24 100.611 64.704C99.7577 63.1253 98.6057 61.9307 97.155 61.12C95.7043 60.2667 94.147 59.84 92.483 59.84C90.819 59.84 89.283 60.2453 87.875 61.056C86.467 61.8667 85.315 63.0613 84.419 64.64C83.5657 66.176 83.139 68.0107 83.139 70.144C83.139 72.2773 83.5657 74.1547 84.419 75.776C85.315 77.3547 86.467 78.5707 87.875 79.424C89.3257 80.2773 90.8617 80.704 92.483 80.704C94.147 80.704 95.7043 80.2987 97.155 79.488C98.6057 78.6347 99.7577 77.44 100.611 75.904C101.464 74.3253 101.891 72.448 101.891 70.272Z" fill="white"/>
<path d="M133.234 88.576C130.333 88.576 127.73 88.064 125.426 87.04C123.122 85.9733 121.287 84.544 119.922 82.752C118.599 80.96 117.874 78.976 117.746 76.8H126.77C126.941 78.1653 127.602 79.296 128.754 80.192C129.949 81.088 131.421 81.536 133.17 81.536C134.877 81.536 136.199 81.1947 137.138 80.512C138.119 79.8293 138.61 78.9547 138.61 77.888C138.61 76.736 138.013 75.8827 136.818 75.328C135.666 74.7307 133.81 74.0907 131.25 73.408C128.605 72.768 126.429 72.1067 124.722 71.424C123.058 70.7413 121.607 69.696 120.37 68.288C119.175 66.88 118.578 64.9813 118.578 62.592C118.578 60.6293 119.133 58.8373 120.242 57.216C121.394 55.5947 123.015 54.3147 125.106 53.376C127.239 52.4373 129.735 51.968 132.594 51.968C136.818 51.968 140.189 53.0347 142.706 55.168C145.223 57.2587 146.61 60.096 146.866 63.68H138.29C138.162 62.272 137.565 61.1627 136.498 60.352C135.474 59.4987 134.087 59.072 132.338 59.072C130.717 59.072 129.458 59.3707 128.562 59.968C127.709 60.5653 127.282 61.3973 127.282 62.464C127.282 63.6587 127.879 64.576 129.074 65.216C130.269 65.8133 132.125 66.432 134.642 67.072C137.202 67.712 139.314 68.3733 140.978 69.056C142.642 69.7387 144.071 70.8053 145.266 72.256C146.503 73.664 147.143 75.5413 147.186 77.888C147.186 79.936 146.61 81.7707 145.458 83.392C144.349 85.0133 142.727 86.2933 140.594 87.232C138.503 88.128 136.05 88.576 133.234 88.576ZM174.509 52.032C177.197 52.032 179.586 52.6293 181.677 53.824C183.768 54.976 185.389 56.704 186.541 59.008C187.736 61.2693 188.333 64 188.333 67.2V88H179.373V68.416C179.373 65.6 178.669 63.4453 177.261 61.952C175.853 60.416 173.933 59.648 171.501 59.648C169.026 59.648 167.064 60.416 165.613 61.952C164.205 63.4453 163.501 65.6 163.501 68.416V88H154.541V40.64H163.501V56.96C164.653 55.424 166.189 54.2293 168.109 53.376C170.029 52.48 172.162 52.032 174.509 52.032ZM211.638 79.744L220.598 52.544H230.134L217.014 88H206.134L193.078 52.544H202.678L211.638 79.744ZM268.126 69.504C268.126 70.784 268.041 71.936 267.87 72.96H241.95C242.163 75.52 243.059 77.5253 244.638 78.976C246.217 80.4267 248.158 81.152 250.462 81.152C253.79 81.152 256.158 79.7227 257.566 76.864H267.23C266.206 80.2773 264.243 83.0933 261.342 85.312C258.441 87.488 254.878 88.576 250.654 88.576C247.241 88.576 244.169 87.8293 241.438 86.336C238.75 84.8 236.638 82.6453 235.102 79.872C233.609 77.0987 232.862 73.8987 232.862 70.272C232.862 66.6027 233.609 63.3813 235.102 60.608C236.595 57.8347 238.686 55.7013 241.374 54.208C244.062 52.7147 247.155 51.968 250.654 51.968C254.025 51.968 257.033 52.6933 259.678 54.144C262.366 55.5947 264.435 57.664 265.886 60.352C267.379 62.9973 268.126 66.048 268.126 69.504ZM258.846 66.944C258.803 64.64 257.971 62.8053 256.35 61.44C254.729 60.032 252.745 59.328 250.398 59.328C248.179 59.328 246.302 60.0107 244.766 61.376C243.273 62.6987 242.355 64.5547 242.014 66.944H258.846ZM294.314 52.032C298.538 52.032 301.951 53.376 304.554 56.064C307.157 58.7093 308.458 62.4213 308.458 67.2V88H299.498V68.416C299.498 65.6 298.794 63.4453 297.386 61.952C295.978 60.416 294.058 59.648 291.626 59.648C289.151 59.648 287.189 60.416 285.738 61.952C284.33 63.4453 283.626 65.6 283.626 68.416V88H274.666V52.544H283.626V56.96C284.821 55.424 286.335 54.2293 288.17 53.376C290.047 52.48 292.095 52.032 294.314 52.032ZM327.411 59.904V77.056C327.411 78.2507 327.688 79.1253 328.243 79.68C328.84 80.192 329.821 80.448 331.187 80.448H335.347V88H329.715C322.163 88 318.387 84.3307 318.387 76.992V59.904H314.163V52.544H318.387V43.776H327.411V52.544H335.347V59.904H327.411ZM357.535 88.576C354.122 88.576 351.05 87.8293 348.319 86.336C345.588 84.8 343.434 82.6453 341.855 79.872C340.319 77.0987 339.551 73.8987 339.551 70.272C339.551 66.6453 340.34 63.4453 341.919 60.672C343.54 57.8987 345.738 55.7653 348.511 54.272C351.284 52.736 354.378 51.968 357.791 51.968C361.204 51.968 364.298 52.736 367.071 54.272C369.844 55.7653 372.02 57.8987 373.599 60.672C375.22 63.4453 376.031 66.6453 376.031 70.272C376.031 73.8987 375.199 77.0987 373.535 79.872C371.914 82.6453 369.695 84.8 366.879 86.336C364.106 87.8293 360.991 88.576 357.535 88.576ZM357.535 80.768C359.156 80.768 360.671 80.384 362.079 79.616C363.53 78.8053 364.682 77.6107 365.535 76.032C366.388 74.4533 366.815 72.5333 366.815 70.272C366.815 66.9013 365.919 64.32 364.127 62.528C362.378 60.6933 360.223 59.776 357.663 59.776C355.103 59.776 352.948 60.6933 351.199 62.528C349.492 64.32 348.639 66.9013 348.639 70.272C348.639 73.6427 349.471 76.2453 351.135 78.08C352.842 79.872 354.975 80.768 357.535 80.768ZM391.564 58.048C392.716 56.1707 394.209 54.6987 396.044 53.632C397.921 52.5653 400.054 52.032 402.444 52.032V61.44H400.076C397.26 61.44 395.126 62.1013 393.676 63.424C392.268 64.7467 391.564 67.0507 391.564 70.336V88H382.604V52.544H391.564V58.048ZM442.399 52.544L420.447 104.768H410.911L418.591 87.104L404.383 52.544H414.431L423.583 77.312L432.863 52.544H442.399Z" fill="#0B1629"/>
</svg>
